<?xml version="1.0" encoding="utf-8"?>
<!-- Generator: Adobe Illustrator 16.0.0, SVG Export Plug-In . SVG Version: 6.00 Build 0)  -->
<!DOCTYPE svg PUBLIC "-//W3C//DTD SVG 1.1//EN" "http://www.w3.org/Graphics/SVG/1.1/DTD/svg11.dtd">
<svg version="1.1" id="background" xmlns="http://www.w3.org/2000/svg" xmlns:xlink="http://www.w3.org/1999/xlink" x="0px" y="0px"
	 width="34.837px" height="34.837px" viewBox="0 0 34.837 34.837" enable-background="new 0 0 34.837 34.837" xml:space="preserve">
<g>
	
		<line fill="none" stroke="#B2B2B0" stroke-width="0.0112" stroke-miterlimit="10" x1="29.298" y1="20.485" x2="31.87" y2="19.676"/>
	<circle fill="#171714" cx="31.838" cy="19.675" r="0.17"/>
	<line fill="none" stroke="#B2B2B0" stroke-width="0.0112" stroke-miterlimit="10" x1="2.415" y1="33.1" x2="13.001" y2="26.617"/>
	<line fill="none" stroke="#B2B2B0" stroke-width="0.0112" stroke-miterlimit="10" x1="2.583" y1="33.132" x2="8.643" y2="27.265"/>
	<line fill="none" stroke="#B2B2B0" stroke-width="0.0112" stroke-miterlimit="10" x1="2.551" y1="33.299" x2="6.416" y2="22.788"/>
	<line fill="none" stroke="#B2B2B0" stroke-width="0.0112" stroke-miterlimit="10" x1="2.551" y1="33.299" x2="6.078" y2="16.73"/>
	<line fill="none" stroke="#B2B2B0" stroke-width="0.0112" stroke-miterlimit="10" x1="2.583" y1="33.132" x2="8.583" y2="22.654"/>
	<line fill="none" stroke="#B2B2B0" stroke-width="0.0112" stroke-miterlimit="10" x1="2.583" y1="33.132" x2="15.277" y2="29.18"/>
	<circle fill="#171714" cx="2.583" cy="33.132" r="0.171"/>
	<line fill="none" stroke="#B2B2B0" stroke-width="0.0112" stroke-miterlimit="10" x1="2.326" y1="13.133" x2="5.294" y2="15.253"/>
	<line fill="none" stroke="#B2B2B0" stroke-width="0.0112" stroke-miterlimit="10" x1="2.326" y1="13.133" x2="1.652" y2="9.623"/>
	<circle fill="#171714" cx="2.327" cy="13.132" r="0.17"/>
	<circle fill="#171714" cx="1.705" cy="9.624" r="0.17"/>
	<line fill="none" stroke="#B2B2B0" stroke-width="0.0112" stroke-miterlimit="10" x1="12.652" y1="6.529" x2="11.978" y2="3.019"/>
	<circle fill="#171714" cx="12.031" cy="3.019" r="0.171"/>
	<g>
		<path fill="#FFFFFF" d="M8.997,16.557c-0.005,0-0.011,0-0.016,0l1.552,2.688c0.005,0,0.011,0,0.016,0L8.997,16.557z"/>
		
			<rect x="8.049" y="18.62" transform="matrix(-0.7507 -0.6606 0.6606 -0.7507 -0.6187 44.3422)" fill="#FFFFFF" width="0.016" height="7.336"/>
		<path fill="#FFFFFF" d="M7.041,25.805c0.001-0.005,0.002-0.011,0.004-0.016l-1.377-0.5c-0.005,0.004-0.009,0.009-0.014,0.012
			L7.041,25.805z"/>
		<path fill="#FFFFFF" d="M7.123,25.973l-1.265,4.575c0.006-0.003,0.012-0.005,0.019-0.007l1.261-4.562
			c-0.001,0-0.002,0-0.003-0.001C7.13,25.977,7.126,25.975,7.123,25.973z"/>
		<path fill="#FFFFFF" d="M9.126,16.459c0.028-0.078-0.012-0.164-0.089-0.191c-0.078-0.028-0.164,0.012-0.191,0.089
			c-0.028,0.078,0.012,0.163,0.089,0.191c0.015,0.005,0.03,0.008,0.046,0.008c0.005,0,0.011,0,0.016,0
			C9.054,16.552,9.106,16.516,9.126,16.459z"/>
		<path fill="#FFFFFF" d="M10.595,19.252c-0.015-0.005-0.03-0.008-0.045-0.008c-0.005,0-0.011,0-0.016,0
			c-0.057,0.004-0.109,0.041-0.13,0.098s-0.004,0.119,0.038,0.159c0.003,0.004,0.008,0.007,0.012,0.01
			c0.012,0.009,0.025,0.017,0.04,0.022c0.078,0.028,0.164-0.012,0.191-0.089C10.712,19.366,10.672,19.28,10.595,19.252z"/>
		<path fill="#FFFFFF" d="M5.618,25.04c-0.078-0.028-0.164,0.012-0.191,0.089c-0.028,0.078,0.012,0.164,0.089,0.191
			c0.048,0.018,0.099,0.009,0.137-0.019c0.005-0.003,0.009-0.008,0.014-0.012c0.017-0.016,0.031-0.035,0.04-0.059
			c0.02-0.056,0.005-0.115-0.034-0.155c-0.004-0.004-0.008-0.007-0.012-0.011C5.648,25.054,5.634,25.045,5.618,25.04z"/>
		<path fill="#FFFFFF" d="M7.123,25.973c0.004,0.002,0.008,0.004,0.012,0.006c0.001,0,0.002,0,0.003,0.001
			c0.077,0.026,0.161-0.014,0.188-0.09c0.028-0.078-0.012-0.164-0.089-0.191c-0.078-0.028-0.164,0.012-0.191,0.089
			c0,0.001,0,0.001-0.001,0.002c-0.001,0.005-0.002,0.01-0.004,0.016C7.025,25.873,7.059,25.943,7.123,25.973z"/>
		<path fill="#FFFFFF" d="M5.858,30.548c-0.035,0.016-0.063,0.045-0.077,0.084c-0.028,0.078,0.012,0.164,0.089,0.191
			c0.078,0.028,0.163-0.012,0.191-0.089c0.028-0.078-0.012-0.163-0.089-0.191c-0.032-0.012-0.066-0.011-0.096-0.001
			C5.87,30.543,5.864,30.545,5.858,30.548z"/>
	</g>
	<g>
		<path fill="#FFFFFF" d="M32.528,11.345c-0.005-0.001-0.01-0.004-0.015-0.006l0.374,3.081c0.005,0.001,0.01,0.004,0.015,0.006
			L32.528,11.345z"/>
		
			<rect x="29.408" y="12.581" transform="matrix(-0.4229 -0.9062 0.9062 -0.4229 27.1312 49.7765)" fill="#FFFFFF" width="0.016" height="7.337"/>
		<path fill="#FFFFFF" d="M27.102,19.086c0.003-0.004,0.006-0.009,0.01-0.013l-1.071-1c-0.006,0.002-0.012,0.004-0.018,0.005
			L27.102,19.086z"/>
		<path fill="#FFFFFF" d="M27.111,19.272l-2.958,3.712c0.007,0,0.014,0.001,0.02,0.001l2.949-3.702c0-0.001-0.001-0.001-0.002-0.002
			C27.117,19.279,27.114,19.276,27.111,19.272z"/>
		<path fill="#FFFFFF" d="M32.686,11.306c0.056-0.06,0.053-0.155-0.007-0.211c-0.061-0.057-0.155-0.053-0.211,0.007
			c-0.056,0.06-0.053,0.154,0.007,0.211c0.012,0.011,0.025,0.019,0.039,0.025c0.005,0.002,0.01,0.005,0.015,0.006
			C32.582,11.364,32.644,11.351,32.686,11.306z"/>
		<path fill="#FFFFFF" d="M32.941,14.452c-0.012-0.011-0.025-0.019-0.039-0.025c-0.005-0.002-0.01-0.005-0.015-0.006
			c-0.054-0.019-0.116-0.005-0.158,0.039s-0.05,0.108-0.028,0.161c0.002,0.005,0.005,0.01,0.008,0.014
			c0.007,0.013,0.016,0.026,0.027,0.037c0.061,0.056,0.155,0.053,0.211-0.007C33.004,14.603,33.001,14.508,32.941,14.452z"/>
		<path fill="#FFFFFF" d="M26.093,17.824c-0.061-0.056-0.155-0.053-0.211,0.007c-0.057,0.06-0.053,0.155,0.007,0.211
			c0.038,0.034,0.087,0.046,0.134,0.036c0.006-0.001,0.012-0.003,0.018-0.005c0.022-0.008,0.043-0.02,0.06-0.039
			c0.041-0.043,0.05-0.104,0.029-0.156c-0.002-0.005-0.004-0.01-0.007-0.015C26.115,17.849,26.105,17.835,26.093,17.824z"/>
		<path fill="#FFFFFF" d="M27.111,19.272c0.003,0.003,0.005,0.007,0.009,0.01c0.001,0,0.002,0.001,0.002,0.002
			c0.061,0.054,0.153,0.05,0.209-0.009c0.056-0.061,0.053-0.155-0.007-0.211c-0.061-0.056-0.155-0.053-0.211,0.007
			c-0.001,0-0.001,0.001-0.002,0.002c-0.003,0.004-0.006,0.008-0.01,0.013C27.061,19.143,27.064,19.22,27.111,19.272z"/>
		<path fill="#FFFFFF" d="M24.154,22.985c-0.038,0.001-0.076,0.018-0.104,0.047c-0.056,0.061-0.053,0.155,0.007,0.211
			c0.06,0.056,0.155,0.053,0.211-0.007c0.057-0.061,0.053-0.155-0.007-0.211c-0.025-0.023-0.056-0.036-0.087-0.039
			C24.167,22.986,24.161,22.985,24.154,22.985z"/>
	</g>
	<g>
		<rect x="22.071" y="24.79" fill="#FFFFFF" width="5.505" height="0.015"/>
		<polygon fill="#FFFFFF" points="24.477,29.113 24.488,29.12 24.489,29.121 27.652,24.734 27.639,24.728 		"/>
		
			<rect x="23.16" y="24.825" transform="matrix(0.9191 -0.3939 0.3939 0.9191 -8.813 11.3194)" fill="#FFFFFF" width="0.015" height="4.605"/>
		<polygon fill="#FFFFFF" points="21.78,18.983 21.766,18.991 21.907,24.892 21.921,24.889 		"/>
		<polygon fill="#FFFFFF" points="19.94,23.198 19.954,23.203 21.705,19.002 21.69,19.001 		"/>
		<rect x="16.031" y="22.587" fill="#FFFFFF" width="3.875" height="0.015"/>
		<polygon fill="#FFFFFF" points="27.831,24.648 27.825,24.663 31.495,27.898 31.507,27.889 		"/>
		<polygon fill="#FFFFFF" points="33.113,26.018 31.633,27.883 31.646,27.89 33.121,26.031 		"/>
		<polygon fill="#FFFFFF" points="24.311,29.322 23.18,30.627 23.188,30.639 24.322,29.332 24.32,29.332 		"/>
		<path fill="#FFFFFF" d="M16.103,21.789c-0.058-0.046-0.143-0.037-0.189,0.022c-0.046,0.058-0.037,0.143,0.021,0.189
			c0.059,0.046,0.143,0.036,0.189-0.022c0.01-0.012,0.017-0.026,0.021-0.04c0.001-0.005,0.003-0.009,0.004-0.014
			C16.161,21.875,16.145,21.822,16.103,21.789z"/>
		<path fill="#FFFFFF" d="M19.8,23.244c-0.002,0.002-0.003,0.005-0.005,0.007c-0.003,0.004-0.006,0.008-0.008,0.013
			c-0.031,0.056-0.018,0.128,0.034,0.169c0.059,0.046,0.143,0.037,0.189-0.021c0.046-0.059,0.037-0.143-0.022-0.189
			c-0.011-0.009-0.023-0.015-0.035-0.02c-0.004-0.002-0.009-0.004-0.014-0.005C19.89,23.184,19.834,23.201,19.8,23.244z"/>
		<path fill="#FFFFFF" d="M21.816,18.952c0.046-0.058,0.037-0.143-0.021-0.189c-0.059-0.046-0.143-0.036-0.189,0.022
			c-0.046,0.059-0.037,0.143,0.022,0.189c0.019,0.015,0.041,0.023,0.063,0.027c0.005,0.001,0.01,0.001,0.015,0.001
			c0.021,0.001,0.042-0.003,0.061-0.012c0.005-0.002,0.01-0.004,0.015-0.007C21.793,18.975,21.806,18.965,21.816,18.952z"/>
		<path fill="#FFFFFF" d="M22.054,25.104c0.023-0.029,0.032-0.066,0.028-0.101c0-0.005-0.002-0.01-0.003-0.015
			c-0.007-0.028-0.022-0.055-0.047-0.074c-0.032-0.025-0.073-0.033-0.11-0.025c-0.005,0.001-0.01,0.001-0.015,0.003
			c-0.024,0.008-0.047,0.023-0.064,0.044c-0.046,0.058-0.037,0.143,0.021,0.189c0.037,0.029,0.085,0.036,0.126,0.022
			c0.005-0.001,0.009-0.004,0.014-0.006C22.023,25.133,22.04,25.121,22.054,25.104z"/>
		<path fill="#FFFFFF" d="M24.477,29.113c-0.041-0.026-0.092-0.028-0.134-0.006c-0.004,0.002-0.008,0.005-0.012,0.008
			c-0.012,0.007-0.022,0.017-0.031,0.028c-0.043,0.055-0.037,0.132,0.012,0.18c0.003,0.003,0.006,0.006,0.009,0.009
			c0,0,0.001,0,0.001,0c0.058,0.045,0.142,0.036,0.188-0.022s0.037-0.142-0.021-0.188c0,0,0,0-0.001-0.001
			C24.484,29.117,24.48,29.116,24.477,29.113z"/>
		<path fill="#FFFFFF" d="M23.163,30.61c-0.059-0.046-0.143-0.036-0.189,0.022s-0.037,0.143,0.022,0.189
			c0.058,0.046,0.143,0.036,0.189-0.022c0.038-0.048,0.038-0.113,0.004-0.161c-0.002-0.004-0.005-0.008-0.009-0.012
			C23.175,30.621,23.169,30.616,23.163,30.61z"/>
		<path fill="#FFFFFF" d="M27.786,24.504c-0.059-0.046-0.143-0.037-0.189,0.021c-0.016,0.02-0.024,0.043-0.027,0.067
			c-0.001,0.005-0.001,0.01-0.001,0.015c0,0.041,0.017,0.081,0.051,0.108c0.006,0.005,0.013,0.009,0.02,0.013
			c0.004,0.003,0.009,0.004,0.014,0.006c0.054,0.021,0.117,0.007,0.155-0.041c0.007-0.009,0.013-0.019,0.018-0.03
			c0.002-0.005,0.004-0.01,0.005-0.015C27.846,24.597,27.831,24.539,27.786,24.504z"/>
		<path fill="#FFFFFF" d="M31.507,27.889c-0.004,0.003-0.009,0.006-0.013,0.009c-0.009,0.006-0.017,0.014-0.024,0.023
			c-0.046,0.058-0.037,0.143,0.022,0.189c0.058,0.046,0.143,0.037,0.189-0.021c0.046-0.059,0.037-0.143-0.021-0.189
			c-0.005-0.003-0.01-0.006-0.015-0.009c-0.004-0.002-0.008-0.005-0.013-0.007C31.592,27.864,31.545,27.867,31.507,27.889z"/>
		<path fill="#FFFFFF" d="M33.148,26.061c0.058,0.046,0.143,0.036,0.189-0.022c0.046-0.059,0.037-0.143-0.021-0.189
			c-0.058-0.046-0.143-0.036-0.189,0.022c-0.034,0.043-0.038,0.101-0.013,0.147c0.002,0.004,0.005,0.008,0.008,0.013
			C33.128,26.042,33.137,26.052,33.148,26.061z"/>
	</g>
	<g>
		<path fill="#FFFFFF" d="M30.321,4.562l0.619-2.013c-0.006,0-0.011-0.002-0.017-0.003l-0.619,2.012L28.852,4.27
			c0.001,0.006,0.002,0.012,0.002,0.018l1.445,0.287l-0.506,1.646c0.006,0,0.012,0,0.018,0.001l0.505-1.644l1.204,0.24
			c0.001-0.006,0.002-0.011,0.004-0.017L30.321,4.562z"/>
		<path fill="#FFFFFF" d="M26.91,7.584l0.492-0.945c-0.005-0.002-0.011-0.005-0.016-0.008l-0.492,0.944l-1.294-0.781
			c-0.002,0.005-0.005,0.01-0.008,0.015l1.294,0.781l-2.614,5.022c0.005,0.003,0.009,0.007,0.014,0.011l2.615-5.024l1.546,0.933
			c0.002-0.005,0.005-0.01,0.009-0.015L26.91,7.584z"/>
		<path fill="#FFFFFF" d="M17.854,16.554c0.003,0.004,0.007,0.008,0.011,0.012c0,0,0,0,0,0.001l4.486-3.159
			c-0.006-0.003-0.011-0.006-0.017-0.01L17.854,16.554z"/>
		<path fill="#FFFFFF" d="M28.638,6.41l0.039-1.952c-0.006-0.001-0.012-0.002-0.018-0.004l-0.038,1.957l-0.998,0.065
			c0.001,0.006,0.002,0.012,0.002,0.017l0.995-0.065l-0.039,2.02c0.006,0,0.011,0,0.017,0l0.04-2.021l0.996-0.066
			c0-0.006,0.001-0.012,0.002-0.017L28.638,6.41z"/>
		<path fill="#FFFFFF" d="M23.355,11.35l2.042-4.468c-0.005-0.002-0.01-0.005-0.015-0.008l-2.038,4.459l-1.251-1.975
			c-0.004,0.004-0.007,0.009-0.012,0.013l1.254,1.98l-0.818,1.79c0.005,0.004,0.01,0.007,0.014,0.011l0.815-1.784l0.774,1.222
			c0.006-0.002,0.011-0.004,0.017-0.005L23.355,11.35z"/>
		<path fill="#FFFFFF" d="M31.05,2.523c0.072-0.05,0.089-0.148,0.039-0.22c-0.05-0.071-0.148-0.089-0.22-0.039
			c-0.071,0.05-0.089,0.148-0.039,0.22c0.023,0.033,0.057,0.054,0.093,0.063c0.006,0.001,0.011,0.002,0.017,0.003
			C30.978,2.554,31.017,2.546,31.05,2.523z"/>
		<path fill="#FFFFFF" d="M31.806,4.75c-0.05-0.071-0.148-0.089-0.22-0.039c-0.032,0.022-0.053,0.055-0.062,0.09
			c-0.002,0.006-0.003,0.011-0.004,0.017c-0.005,0.038,0.002,0.079,0.026,0.113c0.05,0.071,0.148,0.089,0.22,0.039
			C31.839,4.92,31.856,4.822,31.806,4.75z"/>
		<path fill="#FFFFFF" d="M28.788,4.432c0.048-0.034,0.071-0.089,0.066-0.144c0-0.006-0.001-0.012-0.002-0.018
			c-0.004-0.021-0.012-0.041-0.025-0.059c-0.05-0.072-0.148-0.089-0.22-0.039c-0.071,0.05-0.089,0.148-0.039,0.22
			c0.023,0.033,0.056,0.053,0.091,0.062c0.006,0.001,0.011,0.003,0.018,0.004C28.714,4.463,28.754,4.455,28.788,4.432z"/>
		<path fill="#FFFFFF" d="M29.7,6.249c-0.034,0.024-0.055,0.058-0.063,0.096c-0.001,0.005-0.002,0.011-0.002,0.017
			c-0.004,0.037,0.004,0.075,0.027,0.107c0.05,0.071,0.148,0.089,0.22,0.039c0.072-0.05,0.089-0.148,0.039-0.22
			c-0.026-0.038-0.066-0.06-0.108-0.065c-0.006-0.001-0.012-0.001-0.018-0.001C29.761,6.22,29.729,6.229,29.7,6.249z"/>
		<path fill="#FFFFFF" d="M27.558,6.625c0.044-0.031,0.068-0.081,0.067-0.131c0-0.005-0.001-0.011-0.002-0.017
			c-0.003-0.025-0.011-0.049-0.026-0.071c-0.05-0.072-0.148-0.089-0.22-0.039c-0.072,0.05-0.089,0.148-0.039,0.22
			c0.014,0.02,0.03,0.034,0.049,0.045c0.005,0.003,0.01,0.005,0.016,0.008C27.451,6.661,27.51,6.658,27.558,6.625z"/>
		<path fill="#FFFFFF" d="M28.581,8.448c-0.03,0.001-0.059,0.01-0.085,0.028c-0.016,0.011-0.029,0.025-0.04,0.041
			c-0.003,0.005-0.006,0.01-0.009,0.015c-0.027,0.051-0.026,0.114,0.009,0.165c0.05,0.071,0.148,0.089,0.22,0.039
			c0.072-0.05,0.089-0.148,0.04-0.22c-0.028-0.041-0.072-0.063-0.118-0.066C28.592,8.448,28.587,8.448,28.581,8.448z"/>
		<path fill="#FFFFFF" d="M25.545,6.864c0.021-0.015,0.037-0.034,0.048-0.055c0.003-0.005,0.005-0.01,0.008-0.015
			c0.02-0.048,0.015-0.104-0.017-0.15c-0.05-0.071-0.148-0.089-0.22-0.039c-0.071,0.05-0.089,0.148-0.039,0.22
			c0.015,0.021,0.035,0.038,0.057,0.049c0.005,0.002,0.01,0.005,0.015,0.008C25.445,6.9,25.5,6.896,25.545,6.864z"/>
		<path fill="#FFFFFF" d="M24.273,12.612c-0.039-0.029-0.088-0.039-0.135-0.027c-0.006,0.001-0.011,0.003-0.017,0.005
			c-0.011,0.004-0.023,0.01-0.034,0.018c-0.071,0.05-0.089,0.148-0.039,0.22c0.05,0.072,0.148,0.089,0.22,0.04
			c0.071-0.05,0.089-0.149,0.039-0.22c-0.006-0.009-0.013-0.017-0.021-0.024C24.282,12.619,24.278,12.616,24.273,12.612z"/>
		<path fill="#FFFFFF" d="M22.334,13.139c-0.072,0.05-0.089,0.148-0.039,0.22c0.011,0.016,0.025,0.029,0.04,0.039
			c0.005,0.004,0.011,0.007,0.017,0.01c0.05,0.026,0.114,0.025,0.164-0.01c0.072-0.05,0.089-0.148,0.039-0.22
			c-0.006-0.01-0.014-0.018-0.022-0.025c-0.004-0.004-0.009-0.007-0.014-0.011C22.465,13.103,22.391,13.099,22.334,13.139z"/>
		<path fill="#FFFFFF" d="M22.093,9.358c0.043-0.054,0.048-0.13,0.007-0.189c-0.05-0.072-0.148-0.089-0.22-0.039
			c-0.071,0.05-0.089,0.148-0.039,0.22c0.05,0.072,0.148,0.089,0.22,0.039c0.007-0.005,0.014-0.011,0.021-0.018
			C22.086,9.368,22.089,9.363,22.093,9.358z"/>
		<path fill="#FFFFFF" d="M17.854,16.554c-0.052-0.061-0.142-0.074-0.209-0.027c-0.072,0.05-0.089,0.148-0.039,0.22
			c0.05,0.072,0.148,0.089,0.22,0.039c0.071-0.049,0.088-0.147,0.04-0.219c0,0,0,0,0-0.001
			C17.861,16.562,17.857,16.558,17.854,16.554z"/>
	</g>
	<g>
		<path fill="#FFFFFF" d="M11.399,17.117c0.011,0,0.021,0,0.032,0.001L11.417,17L11.399,17.117z"/>
		<path fill="#FFFFFF" d="M11.218,17.215c0.005-0.007,0.011-0.014,0.017-0.02l-10-10.06C1.23,7.141,1.224,7.147,1.218,7.153
			L11.218,17.215z"/>
		<path fill="#FFFFFF" d="M11.344,17.126L5.071,2.546C5.064,2.55,5.058,2.554,5.051,2.557c-0.001,0-0.002,0-0.003,0l6.271,14.577
			l0,0C11.328,17.131,11.336,17.129,11.344,17.126z"/>
		<path fill="#FFFFFF" d="M11.417,17l0.014,0.119c0.009,0.001,0.017,0.001,0.026,0.003l-0.025-0.214l1.457-9.318
			c-0.009,0.001-0.017,0.002-0.025,0.002l-1.442,9.225l-1.102-9.215c-0.009,0.001-0.017,0.002-0.025,0.003l1.113,9.304l-0.033,0.211
			c0.009-0.001,0.017-0.002,0.026-0.002L11.417,17z"/>
		<path fill="#FFFFFF" d="M11.188,17.438c0.045,0.119,0.178,0.175,0.296,0.126c0.119-0.049,0.178-0.185,0.132-0.304
			c-0.027-0.073-0.088-0.122-0.159-0.138c-0.009-0.002-0.017-0.002-0.026-0.003c-0.011-0.001-0.021-0.002-0.032-0.001
			c-0.009,0-0.017,0.001-0.026,0.002c-0.01,0.001-0.02,0.004-0.029,0.007c-0.008,0.002-0.017,0.004-0.024,0.008l0,0
			c-0.034,0.014-0.062,0.035-0.085,0.061c-0.006,0.006-0.011,0.013-0.017,0.02C11.173,17.278,11.158,17.361,11.188,17.438z"/>
		<path fill="#FFFFFF" d="M0.853,7.072C0.897,7.19,1.03,7.247,1.149,7.198c0.026-0.011,0.049-0.026,0.069-0.044
			C1.224,7.147,1.23,7.141,1.235,7.135C1.292,7.07,1.313,6.978,1.282,6.894C1.236,6.775,1.104,6.719,0.985,6.768
			C0.866,6.817,0.807,6.953,0.853,7.072z"/>
		<path fill="#FFFFFF" d="M5.071,2.546c0.104-0.056,0.156-0.182,0.113-0.293C5.138,2.134,5.005,2.078,4.887,2.127
			C4.769,2.176,4.709,2.312,4.754,2.431C4.799,2.548,4.93,2.604,5.048,2.558c0.001,0,0.002,0,0.003,0
			C5.058,2.554,5.064,2.55,5.071,2.546z"/>
		<path fill="#FFFFFF" d="M10.319,7.602c0.014-0.003,0.028-0.007,0.042-0.013c0.119-0.049,0.178-0.185,0.132-0.304
			c-0.045-0.119-0.178-0.175-0.296-0.126c-0.119,0.049-0.178,0.185-0.132,0.304c0.037,0.097,0.131,0.151,0.229,0.142
			C10.302,7.604,10.31,7.603,10.319,7.602z"/>
		<path fill="#FFFFFF" d="M12.935,7.576c0.119-0.049,0.178-0.185,0.133-0.304c-0.045-0.119-0.178-0.175-0.297-0.126
			s-0.178,0.185-0.132,0.304c0.036,0.095,0.128,0.149,0.225,0.142c0.008,0,0.017-0.001,0.025-0.002
			C12.904,7.587,12.92,7.583,12.935,7.576z"/>
	</g>
	<g>
		<line fill="none" stroke="#171714" stroke-width="0.0112" stroke-miterlimit="10" x1="8.635" y1="8.402" x2="6.573" y2="13.246"/>
		<line fill="none" stroke="#171714" stroke-width="0.0112" stroke-miterlimit="10" x1="6.573" y1="13.246" x2="10.7" y2="12.084"/>
		
			<line fill="none" stroke="#171714" stroke-width="0.0112" stroke-miterlimit="10" x1="10.691" y1="12.157" x2="12.627" y2="6.522"/>
		<line fill="none" stroke="#171714" stroke-width="0.0112" stroke-miterlimit="10" x1="8.585" y1="8.506" x2="13.785" y2="8.544"/>
		
			<line fill="none" stroke="#171714" stroke-width="0.0112" stroke-miterlimit="10" x1="13.785" y1="8.544" x2="17.449" y2="5.111"/>
		
			<line fill="none" stroke="#171714" stroke-width="0.0112" stroke-miterlimit="10" x1="17.412" y1="5.108" x2="21.817" y2="7.449"/>
		
			<line fill="none" stroke="#171714" stroke-width="0.0112" stroke-miterlimit="10" x1="21.817" y1="7.449" x2="24.47" y2="10.242"/>
		
			<line fill="none" stroke="#171714" stroke-width="0.0112" stroke-miterlimit="10" x1="24.47" y1="10.242" x2="27.905" y2="8.636"/>
		
			<line fill="none" stroke="#171714" stroke-width="0.0112" stroke-miterlimit="10" x1="27.954" y1="8.596" x2="27.015" y2="12.395"/>
		
			<line fill="none" stroke="#171714" stroke-width="0.0112" stroke-miterlimit="10" x1="27.015" y1="12.395" x2="30.733" y2="15.834"/>
		
			<line fill="none" stroke="#171714" stroke-width="0.0112" stroke-miterlimit="10" x1="30.733" y1="15.834" x2="26.44" y2="18.675"/>
		
			<line fill="none" stroke="#171714" stroke-width="0.0112" stroke-miterlimit="10" x1="26.44" y1="18.675" x2="29.009" y2="22.16"/>
		
			<line fill="none" stroke="#171714" stroke-width="0.0112" stroke-miterlimit="10" x1="28.985" y1="22.046" x2="25.929" y2="23.818"/>
		
			<line fill="none" stroke="#171714" stroke-width="0.0112" stroke-miterlimit="10" x1="25.929" y1="23.818" x2="24.785" y2="27.481"/>
		
			<line fill="none" stroke="#171714" stroke-width="0.0112" stroke-miterlimit="10" x1="24.785" y1="27.481" x2="19.65" y2="27.226"/>
		
			<line fill="none" stroke="#171714" stroke-width="0.0112" stroke-miterlimit="10" x1="19.652" y1="27.193" x2="15.428" y2="29.156"/>
		
			<line fill="none" stroke="#171714" stroke-width="0.0112" stroke-miterlimit="10" x1="15.428" y1="29.156" x2="13.001" y2="26.617"/>
		
			<line fill="none" stroke="#171714" stroke-width="0.0112" stroke-miterlimit="10" x1="13.122" y1="26.551" x2="8.643" y2="27.265"/>
		
			<line fill="none" stroke="#171714" stroke-width="0.0112" stroke-miterlimit="10" x1="8.643" y1="27.265" x2="8.592" y2="22.497"/>
		
			<line fill="none" stroke="#171714" stroke-width="0.0112" stroke-miterlimit="10" x1="8.592" y1="22.497" x2="5.699" y2="20.782"/>
		
			<line fill="none" stroke="#171714" stroke-width="0.0112" stroke-miterlimit="10" x1="5.699" y1="20.782" x2="7.837" y2="16.832"/>
		
			<line fill="none" stroke="#171714" stroke-width="0.0112" stroke-miterlimit="10" x1="7.837" y1="16.832" x2="6.573" y2="13.246"/>
		
			<line fill="none" stroke="#171714" stroke-width="0.0112" stroke-miterlimit="10" x1="10.691" y1="12.157" x2="6.078" y2="16.73"/>
		<line fill="none" stroke="#171714" stroke-width="0.0112" stroke-miterlimit="10" x1="6.078" y1="16.73" x2="8.317" y2="19.584"/>
		
			<line fill="none" stroke="#171714" stroke-width="0.0112" stroke-miterlimit="10" x1="8.317" y1="19.584" x2="6.416" y2="22.788"/>
		
			<line fill="none" stroke="#171714" stroke-width="0.0112" stroke-miterlimit="10" x1="6.429" y1="22.679" x2="10.989" y2="22.824"/>
		
			<line fill="none" stroke="#171714" stroke-width="0.0112" stroke-miterlimit="10" x1="10.989" y1="22.824" x2="13.93" y2="28.421"/>
		
			<line fill="none" stroke="#171714" stroke-width="0.0112" stroke-miterlimit="10" x1="13.956" y1="28.404" x2="15.942" y2="27.255"/>
		
			<line fill="none" stroke="#171714" stroke-width="0.0112" stroke-miterlimit="10" x1="15.916" y1="27.258" x2="18.998" y2="29.55"/>
		
			<line fill="none" stroke="#171714" stroke-width="0.0112" stroke-miterlimit="10" x1="18.974" y1="29.544" x2="21.11" y2="25.819"/>
		
			<line fill="none" stroke="#171714" stroke-width="0.0112" stroke-miterlimit="10" x1="21.103" y1="25.833" x2="25.283" y2="27.025"/>
		
			<line fill="none" stroke="#171714" stroke-width="0.0112" stroke-miterlimit="10" x1="25.283" y1="27.025" x2="26.775" y2="22.923"/>
		
			<line fill="none" stroke="#171714" stroke-width="0.0112" stroke-miterlimit="10" x1="26.775" y1="22.923" x2="29.348" y2="20.577"/>
		
			<line fill="none" stroke="#171714" stroke-width="0.0112" stroke-miterlimit="10" x1="29.348" y1="20.577" x2="27.565" y2="17.002"/>
		
			<line fill="none" stroke="#171714" stroke-width="0.0112" stroke-miterlimit="10" x1="27.565" y1="17.002" x2="29.63" y2="11.826"/>
		
			<line fill="none" stroke="#171714" stroke-width="0.0112" stroke-miterlimit="10" x1="29.63" y1="11.826" x2="26.857" y2="11.564"/>
		
			<line fill="none" stroke="#171714" stroke-width="0.0112" stroke-miterlimit="10" x1="26.857" y1="11.564" x2="26.454" y2="7.566"/>
		
			<line fill="none" stroke="#171714" stroke-width="0.0112" stroke-miterlimit="10" x1="26.454" y1="7.566" x2="21.854" y2="8.671"/>
		<line fill="none" stroke="#171714" stroke-width="0.0112" stroke-miterlimit="10" x1="21.908" y1="8.71" x2="19.99" y2="5.16"/>
		<line fill="none" stroke="#171714" stroke-width="0.0112" stroke-miterlimit="10" x1="19.99" y1="5.16" x2="16.676" y2="7.232"/>
		
			<line fill="none" stroke="#171714" stroke-width="0.0112" stroke-miterlimit="10" x1="16.676" y1="7.232" x2="12.622" y2="6.527"/>
		
			<line fill="none" stroke="#171714" stroke-width="0.0112" stroke-miterlimit="10" x1="8.899" y1="10.786" x2="11.866" y2="8.498"/>
		<line fill="none" stroke="#171714" stroke-width="0.0112" stroke-miterlimit="10" x1="8.899" y1="10.786" x2="8.585" y2="8.506"/>
		<line fill="none" stroke="#171714" stroke-width="0.0112" stroke-miterlimit="10" x1="12.627" y1="6.522" x2="14.54" y2="5.045"/>
		<line fill="none" stroke="#171714" stroke-width="0.0112" stroke-miterlimit="10" x1="15.839" y1="7.937" x2="14.54" y2="5.045"/>
		
			<line fill="none" stroke="#171714" stroke-width="0.0112" stroke-miterlimit="10" x1="8.899" y1="10.786" x2="6.573" y2="13.246"/>
		
			<line fill="none" stroke="#171714" stroke-width="0.0112" stroke-miterlimit="10" x1="7.293" y1="15.452" x2="5.326" y2="15.214"/>
		<line fill="none" stroke="#171714" stroke-width="0.0112" stroke-miterlimit="10" x1="5.326" y1="15.214" x2="6.078" y2="16.73"/>
		
			<line fill="none" stroke="#171714" stroke-width="0.0112" stroke-miterlimit="10" x1="6.416" y1="22.788" x2="8.769" y2="27.303"/>
		
			<line fill="none" stroke="#171714" stroke-width="0.0112" stroke-miterlimit="10" x1="13.93" y1="28.421" x2="15.428" y2="29.156"/>
		
			<line fill="none" stroke="#171714" stroke-width="0.0112" stroke-miterlimit="10" x1="21.11" y1="25.819" x2="25.929" y2="23.818"/>
		
			<line fill="none" stroke="#171714" stroke-width="0.0112" stroke-miterlimit="10" x1="29.348" y1="20.577" x2="30.733" y2="15.834"/>
		<line fill="none" stroke="#171714" stroke-width="0.0112" stroke-miterlimit="10" x1="19.99" y1="5.16" x2="26.454" y2="7.566"/>
		
			<line fill="none" stroke="#171714" stroke-width="0.0112" stroke-miterlimit="10" x1="24.47" y1="10.242" x2="27.015" y2="12.395"/>
		
			<line fill="none" stroke="#171714" stroke-width="0.0112" stroke-miterlimit="10" x1="15.839" y1="7.937" x2="20.938" y2="7.034"/>
		
			<line fill="none" stroke="#171714" stroke-width="0.0112" stroke-miterlimit="10" x1="29.63" y1="11.826" x2="30.165" y2="13.27"/>
		
			<line fill="none" stroke="#171714" stroke-width="0.0112" stroke-miterlimit="10" x1="30.165" y1="13.27" x2="26.73" y2="14.764"/>
		
			<line fill="none" stroke="#171714" stroke-width="0.0112" stroke-miterlimit="10" x1="26.73" y1="14.764" x2="27.565" y2="17.002"/>
		
			<line fill="none" stroke="#171714" stroke-width="0.0112" stroke-miterlimit="10" x1="15.412" y1="29.061" x2="18.973" y2="30.836"/>
		
			<line fill="none" stroke="#171714" stroke-width="0.0112" stroke-miterlimit="10" x1="18.973" y1="30.836" x2="21.913" y2="27.33"/>
	</g>
	<circle fill="#171714" cx="15.426" cy="7.01" r="0.171"/>
	<circle fill="#171714" cx="13.756" cy="8.548" r="0.17"/>
	<circle fill="#171714" cx="8.908" cy="10.728" r="0.17"/>
	<circle fill="#171714" cx="10.667" cy="12.125" r="0.17"/>
	<circle fill="#171714" cx="7.355" cy="15.479" r="0.171"/>
	<circle fill="#171714" cx="6.078" cy="16.73" r="0.17"/>
	<circle fill="#171714" cx="7.837" cy="16.832" r="0.17"/>
	<circle fill="#171714" cx="7.136" cy="18.119" r="0.17"/>
	<circle fill="#171714" cx="5.699" cy="20.782" r="0.17"/>
	<circle fill="#171714" cx="8.317" cy="19.584" r="0.17"/>
	<circle fill="#171714" cx="7.112" cy="21.617" r="0.17"/>
	<circle fill="#171714" cx="6.467" cy="22.736" r="0.17"/>
	<circle fill="#171714" cx="8.603" cy="22.484" r="0.17"/>
	<circle fill="#171714" cx="10.943" cy="22.84" r="0.17"/>
	<circle fill="#171714" cx="8.674" cy="27.22" r="0.17"/>
	<circle fill="#171714" cx="13.015" cy="26.592" r="0.17"/>
	<circle fill="#171714" cx="15.966" cy="27.303" r="0.17"/>
	<circle fill="#171714" cx="18.986" cy="29.535" r="0.17"/>
	<circle fill="#171714" cx="18.964" cy="30.817" r="0.17"/>
	<circle fill="#171714" cx="19.604" cy="27.221" r="0.17"/>
	<circle fill="#171714" cx="21.118" cy="25.891" r="0.17"/>
	<circle fill="#171714" cx="25.271" cy="27.014" r="0.171"/>
	<circle fill="#171714" cx="24.785" cy="27.453" r="0.17"/>
	<circle fill="#171714" cx="26.542" cy="23.466" r="0.17"/>
	<circle fill="#171714" cx="28.98" cy="22.088" r="0.171"/>
	<circle fill="#171714" cx="26.415" cy="18.742" r="0.17"/>
	<circle fill="#171714" cx="29.334" cy="20.535" r="0.17"/>
	<circle fill="#171714" cx="27.535" cy="16.994" r="0.171"/>
	<circle fill="#171714" cx="30.697" cy="15.858" r="0.17"/>
	<circle fill="#171714" cx="26.737" cy="14.792" r="0.17"/>
	<circle fill="#171714" cx="30.177" cy="13.291" r="0.17"/>
	<circle fill="#171714" cx="29.61" cy="11.837" r="0.17"/>
	<circle fill="#171714" cx="27.014" cy="12.41" r="0.17"/>
	<circle fill="#171714" cx="28.75" cy="13.939" r="0.17"/>
	<circle fill="#171714" cx="26.857" cy="11.564" r="0.17"/>
	<circle fill="#171714" cx="24.491" cy="10.227" r="0.171"/>
	<circle fill="#171714" cx="26.447" cy="7.6" r="0.171"/>
	<circle fill="#171714" cx="21.896" cy="8.667" r="0.171"/>
	<circle fill="#171714" cx="20.996" cy="7.041" r="0.17"/>
	<circle fill="#171714" cx="20.012" cy="5.193" r="0.171"/>
	<circle fill="#171714" cx="15.87" cy="7.926" r="0.17"/>
	<circle fill="#171714" cx="16.672" cy="7.247" r="0.17"/>
	<circle fill="#171714" cx="15.425" cy="29.095" r="0.17"/>
	<circle fill="#171714" cx="13.962" cy="28.453" r="0.17"/>
	<circle fill="#171714" cx="14.547" cy="5.07" r="0.17"/>
	<circle fill="#171714" cx="12.632" cy="6.49" r="0.17"/>
	<circle fill="#171714" cx="11.908" cy="8.553" r="0.171"/>
	<circle fill="#171714" cx="8.59" cy="8.506" r="0.17"/>
	<circle fill="#171714" cx="6.573" cy="13.246" r="0.171"/>
	<circle fill="#171714" cx="5.33" cy="15.274" r="0.17"/>
	<circle fill="#171714" cx="17.434" cy="5.141" r="0.171"/>
	
		<line fill="none" stroke="#B2B2B0" stroke-width="0.0112" stroke-miterlimit="10" x1="24.785" y1="27.481" x2="33.255" y2="33.216"/>
	
		<line fill="none" stroke="#B2B2B0" stroke-width="0.0112" stroke-miterlimit="10" x1="33.205" y1="33.156" x2="29.009" y2="22.16"/>
	
		<line fill="none" stroke="#B2B2B0" stroke-width="0.0112" stroke-miterlimit="10" x1="26.542" y1="23.466" x2="33.255" y2="33.216"/>
	
		<line fill="none" stroke="#B2B2B0" stroke-width="0.0112" stroke-miterlimit="10" x1="33.255" y1="33.216" x2="18.973" y2="30.836"/>
	
		<line fill="none" stroke="#B2B2B0" stroke-width="0.0112" stroke-miterlimit="10" x1="33.086" y1="33.196" x2="19.65" y2="27.226"/>
	<circle fill="#171714" cx="33.255" cy="33.216" r="0.171"/>
	<line fill="none" stroke="#B2B2B0" stroke-width="0.0112" stroke-miterlimit="10" x1="6.298" y1="22.715" x2="3.07" y2="21.934"/>
	<line fill="none" stroke="#B2B2B0" stroke-width="0.0112" stroke-miterlimit="10" x1="2.915" y1="21.915" x2="3.41" y2="25.662"/>
	<line fill="none" stroke="#B2B2B0" stroke-width="0.0112" stroke-miterlimit="10" x1="3.41" y1="25.662" x2="2.041" y2="25.654"/>
	<line fill="none" stroke="#B2B2B0" stroke-width="0.0112" stroke-miterlimit="10" x1="20.091" y1="5.29" x2="22.663" y2="4.48"/>
	<line fill="none" stroke="#B2B2B0" stroke-width="0.0112" stroke-miterlimit="10" x1="22.663" y1="4.48" x2="21.79" y2="2.063"/>
	<line fill="none" stroke="#B2B2B0" stroke-width="0.0112" stroke-miterlimit="10" x1="21.79" y1="2.063" x2="20.091" y2="5.29"/>
	<line fill="none" stroke="#B2B2B0" stroke-width="0.0112" stroke-miterlimit="10" x1="21.79" y1="2.063" x2="25.176" y2="0.919"/>
	<circle fill="#171714" cx="2.041" cy="25.654" r="0.171"/>
	<circle fill="#171714" cx="3.41" cy="25.662" r="0.171"/>
	<circle fill="#171714" cx="2.914" cy="21.915" r="0.17"/>
	<circle fill="#171714" cx="14.547" cy="5.07" r="0.17"/>
	<circle fill="#171714" cx="12.632" cy="6.49" r="0.17"/>
	<circle fill="#171714" cx="11.908" cy="8.553" r="0.171"/>
	<circle fill="#171714" cx="8.59" cy="8.506" r="0.17"/>
	<circle fill="#171714" cx="6.573" cy="13.246" r="0.171"/>
	<circle fill="#171714" cx="5.33" cy="15.274" r="0.17"/>
	<circle fill="#171714" cx="17.434" cy="5.141" r="0.171"/>
	<circle fill="#171714" cx="27.938" cy="8.644" r="0.17"/>
	<circle fill="#171714" cx="22.631" cy="4.479" r="0.171"/>
	<circle fill="#171714" cx="25.182" cy="0.951" r="0.17"/>
	<circle fill="#171714" cx="21.791" cy="2.063" r="0.171"/>
</g>
</svg>
